# xmcd
#
# Track frame offsets:
#	150
#	13233
#	30474
#	45211
#	57050
#	70288
#	84353
#	95735
#	109826
#	122975
#
# Disc length: 1808 seconds
#
# Revision: 0
# Processed by: cddbd v1.5PL3 Copyright (c) Steve Scherf et al.
# Submitted via: dBpowerAMP V4.0
#
DISCID=7c070e0a
DTITLE=Jambolaya - What Would Hank Do
DYEAR=1900
DGENRE=Country
TTITLE0=Alone and Forsaken
TTITLE1=Blue Eyes Crying in the Rain
TTITLE2=California Zephyr
TTITLE3=Old Log Train
TTITLE4=Settin the Woods on Fire
TTITLE5=Cheatin' Heart
TTITLE6=Lovesick Blues
TTITLE7=Lost Highway
TTITLE8=I Saw the Light
TTITLE9=Jambolaya
EXTD=
EXTT0=
EXTT1=
EXTT2=
EXTT3=
EXTT4=
EXTT5=
EXTT6=
EXTT7=
EXTT8=
EXTT9=
PLAYORDER=
